<?xml version="1.0" encoding="utf-8"?>
<!-- Generator: Adobe Illustrator 24.1.2, SVG Export Plug-In . SVG Version: 6.00 Build 0)  -->
<svg version="1.1" id="Layer_1" xmlns="http://www.w3.org/2000/svg" xmlns:xlink="http://www.w3.org/1999/xlink" x="0px" y="0px"
	 viewBox="0 0 376.42 376.42" style="enable-background:new 0 0 376.42 376.42;" xml:space="preserve">
<style type="text/css">
	.st0{fill:url(#SVGID_1_);}
	.st1{fill:#FFFFFF;}
</style>
<linearGradient id="SVGID_1_" gradientUnits="userSpaceOnUse" x1="188.2105" y1="-1.1071" x2="188.2105" y2="373.1014">
	<stop  offset="0" style="stop-color:#4A5298"/>
	<stop  offset="0.1178" style="stop-color:#654F92"/>
	<stop  offset="0.5533" style="stop-color:#AF407F"/>
	<stop  offset="0.8567" style="stop-color:#DB2C72"/>
	<stop  offset="1" style="stop-color:#ED1F6D"/>
</linearGradient>
<polygon class="st0" points="376.42,376.42 376.42,376.42 0,376.42 0,0 376.42,0 376.42,0 "/>
<g>
	<path class="st1" d="M293.68,46.93H82.74c-31.77,0-57.62,25.85-57.62,57.62v167.31c0,31.77,25.85,57.62,57.62,57.62h210.95
		c31.77,0,57.62-25.85,57.62-57.62V104.56C351.31,72.78,325.46,46.93,293.68,46.93z M336.27,271.87c0,23.48-19.11,42.59-42.59,42.59
		H82.74c-23.48,0-42.59-19.11-42.59-42.59V104.56c0-23.48,19.11-42.59,42.59-42.59h210.95c23.48,0,42.59,19.11,42.59,42.59V271.87z"
		/>
	<path class="st1" d="M310.98,191.86v71.26c0,15.33-12.47,27.81-27.81,27.81H91.9c-4.15,0-7.52,3.37-7.52,7.52
		c0,4.15,3.37,7.52,7.52,7.52h191.28c23.62,0,42.84-19.22,42.84-42.84v-71.26c0-4.15-3.37-7.52-7.52-7.52
		S310.98,187.71,310.98,191.86z"/>
	<path class="st1" d="M133.88,137.86h108.65c12.29,0,22.29-10,22.29-22.29V91.47c0-12.29-10-22.29-22.29-22.29H133.88
		c-12.29,0-22.29,10-22.29,22.29v24.11C111.6,127.86,121.6,137.86,133.88,137.86z M126.63,91.47c0-4,3.25-7.25,7.25-7.25h108.65
		c4,0,7.25,3.25,7.25,7.25v24.11c0,4-3.25,7.25-7.25,7.25H133.88c-4,0-7.25-3.25-7.25-7.25V91.47z"/>
</g>
<g>
	<path class="st1" d="M112.65,242.58c-4.55,0-9.07-0.14-13.58-0.42c-4.51-0.28-9.2-0.94-14.06-1.97v-80.41
		c3.83-0.72,8.02-1.26,12.56-1.62c4.55-0.36,8.77-0.54,12.68-0.54c5.26,0,10.11,0.38,14.54,1.14c4.43,0.76,8.24,2.05,11.43,3.89
		c3.19,1.84,5.68,4.25,7.48,7.24c1.79,2.99,2.69,6.68,2.69,11.07c0,6.62-3.19,11.85-9.57,15.68c5.26,1.99,8.85,4.71,10.77,8.14
		c1.91,3.43,2.87,7.3,2.87,11.61c0,8.7-3.17,15.24-9.51,19.62C134.6,240.39,125.17,242.58,112.65,242.58z M103.2,191.13h9.09
		c5.74,0,9.85-0.74,12.32-2.21c2.47-1.48,3.71-3.85,3.71-7.12c0-3.35-1.28-5.7-3.83-7.06c-2.55-1.36-6.3-2.03-11.25-2.03
		c-1.6,0-3.31,0.02-5.14,0.06c-1.84,0.04-3.47,0.14-4.91,0.3V191.13z M103.2,205.37v21.42c1.36,0.16,2.83,0.28,4.43,0.36
		c1.59,0.08,3.35,0.12,5.26,0.12c5.58,0,10.09-0.8,13.52-2.39c3.43-1.59,5.15-4.55,5.15-8.85c0-3.83-1.44-6.56-4.31-8.2
		c-2.87-1.63-6.98-2.45-12.32-2.45H103.2z"/>
	<path class="st1" d="M187.43,158.59c1.44,2.63,3.1,5.88,4.98,9.75c1.88,3.87,3.84,8.06,5.88,12.56c2.04,4.51,4.06,9.11,6.06,13.82
		c2,4.71,3.88,9.13,5.64,13.28c1.76-4.15,3.64-8.57,5.64-13.28c2-4.71,4.02-9.31,6.06-13.82c2.04-4.51,4-8.69,5.88-12.56
		c1.88-3.87,3.54-7.12,4.98-9.75h16.99c0.8,5.5,1.54,11.67,2.21,18.49c0.68,6.82,1.28,13.92,1.79,21.3c0.52,7.38,1,14.78,1.44,22.2
		c0.44,7.42,0.82,14.4,1.14,20.94h-18.19c-0.24-8.06-0.56-16.83-0.96-26.32c-0.4-9.49-1-19.07-1.79-28.72
		c-1.44,3.35-3.04,7.06-4.8,11.13c-1.76,4.07-3.5,8.14-5.22,12.2c-1.72,4.07-3.38,7.96-4.98,11.67c-1.6,3.71-2.96,6.88-4.08,9.51
		h-13.04c-1.12-2.63-2.48-5.8-4.08-9.51c-1.6-3.71-3.26-7.6-4.98-11.67c-1.72-4.07-3.46-8.14-5.22-12.2
		c-1.76-4.07-3.36-7.78-4.8-11.13c-0.8,9.65-1.4,19.23-1.79,28.72c-0.4,9.49-0.72,18.27-0.96,26.32h-18.19
		c0.32-6.54,0.7-13.52,1.14-20.94c0.44-7.42,0.92-14.82,1.44-22.2c0.52-7.38,1.12-14.48,1.79-21.3c0.68-6.82,1.42-12.98,2.21-18.49
		H187.43z"/>
	<path class="st1" d="M272.75,158.59h18.67v82.92h-18.67V158.59z"/>
</g>
</svg>
