<?xml version="1.0" encoding="utf-8"?>
<!-- Generator: Adobe Illustrator 24.1.2, SVG Export Plug-In . SVG Version: 6.00 Build 0)  -->
<svg version="1.1" id="Layer_1" xmlns="http://www.w3.org/2000/svg" xmlns:xlink="http://www.w3.org/1999/xlink" x="0px" y="0px"
	 viewBox="0 0 595.28 841.89" style="enable-background:new 0 0 595.28 841.89;" xml:space="preserve">
<style type="text/css">
	.st0{fill:url(#SVGID_1_);}
	.st1{fill:#FFFFFF;}
</style>
<linearGradient id="SVGID_1_" gradientUnits="userSpaceOnUse" x1="236.1789" y1="-699.4261" x2="236.1789" y2="-502.0249">
	<stop  offset="0" style="stop-color:#4A5298"/>
	<stop  offset="0.1178" style="stop-color:#654F92"/>
	<stop  offset="0.5533" style="stop-color:#AF407F"/>
	<stop  offset="0.8567" style="stop-color:#DB2C72"/>
	<stop  offset="1" style="stop-color:#ED1F6D"/>
</linearGradient>
<polygon class="st0" points="335.46,-500.27 335.46,-500.27 136.89,-500.27 136.89,-698.84 335.46,-698.84 335.46,-698.84 "/>
<g>
	<path class="st1" d="M291.82-674.08H180.54c-16.76,0-30.4,13.64-30.4,30.4v88.26c0,16.76,13.64,30.4,30.4,30.4h111.28
		c16.76,0,30.4-13.64,30.4-30.4v-88.26C322.21-660.45,308.58-674.08,291.82-674.08z M314.28-555.43c0,12.39-10.08,22.47-22.47,22.47
		H180.54c-12.39,0-22.47-10.08-22.47-22.47v-88.26c0-12.39,10.08-22.47,22.47-22.47h111.28c12.39,0,22.47,10.08,22.47,22.47V-555.43
		z"/>
	<path class="st1" d="M300.94-597.63v37.59c0,8.09-6.58,14.67-14.67,14.67h-100.9c-2.19,0-3.97,1.78-3.97,3.97
		c0,2.19,1.78,3.97,3.97,3.97h100.9c12.46,0,22.6-10.14,22.6-22.6v-37.59c0-2.19-1.78-3.97-3.97-3.97S300.94-599.82,300.94-597.63z"
		/>
	<path class="st1" d="M207.52-626.12h57.32c6.48,0,11.76-5.27,11.76-11.76v-12.72c0-6.48-5.27-11.76-11.76-11.76h-57.32
		c-6.48,0-11.76,5.27-11.76,11.76v12.72C195.76-631.39,201.04-626.12,207.52-626.12z M203.69-650.59c0-2.11,1.72-3.83,3.83-3.83
		h57.32c2.11,0,3.83,1.72,3.83,3.83v12.72c0,2.11-1.72,3.83-3.83,3.83h-57.32c-2.11,0-3.83-1.72-3.83-3.83V-650.59z"/>
</g>
<g>
	<path class="st1" d="M196.32-570.88c-2.4,0-4.79-0.07-7.16-0.22c-2.38-0.15-4.85-0.49-7.42-1.04v-42.42
		c2.02-0.38,4.23-0.66,6.63-0.85c2.4-0.19,4.63-0.28,6.69-0.28c2.78,0,5.33,0.2,7.67,0.6c2.34,0.4,4.34,1.08,6.03,2.05
		c1.68,0.97,3,2.24,3.95,3.82s1.42,3.52,1.42,5.84c0,3.49-1.68,6.25-5.05,8.27c2.78,1.05,4.67,2.48,5.68,4.29
		c1.01,1.81,1.51,3.85,1.51,6.12c0,4.59-1.67,8.04-5.02,10.35C207.9-572.03,202.92-570.88,196.32-570.88z M191.33-598.02h4.8
		c3.03,0,5.2-0.39,6.5-1.17c1.3-0.78,1.96-2.03,1.96-3.76c0-1.77-0.67-3.01-2.02-3.72c-1.35-0.71-3.32-1.07-5.93-1.07
		c-0.84,0-1.75,0.01-2.71,0.03c-0.97,0.02-1.83,0.07-2.59,0.16V-598.02z M191.33-590.51v11.3c0.71,0.08,1.49,0.15,2.34,0.19
		c0.84,0.04,1.77,0.06,2.78,0.06c2.94,0,5.32-0.42,7.13-1.26c1.81-0.84,2.71-2.4,2.71-4.67c0-2.02-0.76-3.46-2.27-4.32
		c-1.52-0.86-3.68-1.29-6.5-1.29H191.33z"/>
	<path class="st1" d="M235.77-615.19c0.76,1.39,1.63,3.1,2.63,5.14c0.99,2.04,2.02,4.25,3.1,6.63c1.08,2.38,2.14,4.81,3.2,7.29
		c1.05,2.48,2.05,4.82,2.97,7.01c0.93-2.19,1.92-4.52,2.97-7.01c1.05-2.48,2.12-4.91,3.2-7.29c1.08-2.38,2.11-4.59,3.1-6.63
		c0.99-2.04,1.87-3.76,2.63-5.14h8.96c0.42,2.9,0.81,6.15,1.17,9.75c0.36,3.6,0.67,7.34,0.95,11.24c0.27,3.89,0.53,7.8,0.76,11.71
		c0.23,3.91,0.43,7.6,0.6,11.05h-9.59c-0.13-4.25-0.29-8.88-0.5-13.89c-0.21-5.01-0.53-10.06-0.95-15.15
		c-0.76,1.77-1.6,3.72-2.53,5.87c-0.93,2.15-1.85,4.29-2.75,6.44c-0.91,2.15-1.78,4.2-2.63,6.15c-0.84,1.96-1.56,3.63-2.15,5.02
		h-6.88c-0.59-1.39-1.31-3.06-2.15-5.02c-0.84-1.96-1.72-4.01-2.63-6.15c-0.91-2.15-1.83-4.29-2.75-6.44
		c-0.93-2.15-1.77-4.1-2.53-5.87c-0.42,5.09-0.74,10.14-0.95,15.15c-0.21,5.01-0.38,9.64-0.5,13.89h-9.59
		c0.17-3.45,0.37-7.13,0.6-11.05c0.23-3.91,0.48-7.82,0.76-11.71c0.27-3.89,0.59-7.64,0.95-11.24c0.36-3.6,0.75-6.85,1.17-9.75
		H235.77z"/>
	<path class="st1" d="M280.77-615.19h9.85v43.74h-9.85V-615.19z"/>
</g>
</svg>
