<?xml version="1.0" encoding="utf-8"?>
<!-- Generator: Adobe Illustrator 24.1.2, SVG Export Plug-In . SVG Version: 6.00 Build 0)  -->
<svg version="1.1" id="Layer_1" xmlns="http://www.w3.org/2000/svg" xmlns:xlink="http://www.w3.org/1999/xlink" x="0px" y="0px"
	 viewBox="0 0 376.4 376.4" style="enable-background:new 0 0 376.4 376.4;" xml:space="preserve">
<style type="text/css">
	.st0{fill:url(#SVGID_1_);}
	.st1{fill:#FFFFFF;}
</style>
<linearGradient id="SVGID_1_" gradientUnits="userSpaceOnUse" x1="188.21" y1="376.9969" x2="188.21" y2="2.7884" gradientTransform="matrix(1 0 0 -1 0 375.8898)">
	<stop  offset="0" style="stop-color:#4A5298"/>
	<stop  offset="0.1178" style="stop-color:#654F92"/>
	<stop  offset="0.5533" style="stop-color:#AF407F"/>
	<stop  offset="0.8567" style="stop-color:#DB2C72"/>
	<stop  offset="1" style="stop-color:#ED1F6D"/>
</linearGradient>
<polygon class="st0" points="376.4,376.4 376.4,376.4 0,376.4 0,0 376.4,0 376.4,0 "/>
<g>
	<path class="st1" d="M293.7,46.9H82.7c-31.8,0-57.6,25.8-57.6,57.6v167.3c0,31.8,25.9,57.6,57.6,57.6h211
		c31.8,0,57.6-25.9,57.6-57.6V104.6C351.3,72.8,325.5,46.9,293.7,46.9z M336.3,271.9L336.3,271.9c0,23.5-19.1,42.6-42.6,42.6H82.7
		c-23.5,0-42.6-19.1-42.6-42.6V104.6C40.2,81.1,59.3,62,82.7,62h211c23.5,0,42.6,19.1,42.6,42.6V271.9z"/>
	<path class="st1" d="M311,191.9v71.3c0,15.3-12.5,27.8-27.8,27.8H91.9c-4.2,0-7.5,3.4-7.5,7.5c0,4.2,3.4,7.5,7.5,7.5h191.3
		c23.6,0,42.8-19.2,42.8-42.8v-71.3c0-4.1-3.4-7.5-7.5-7.5C314.4,184.4,311,187.7,311,191.9z"/>
	<path class="st1" d="M133.9,137.9h108.7c12.3,0,22.3-10,22.3-22.3V91.5c0-12.3-10-22.3-22.3-22.3H133.9c-12.3,0-22.3,10-22.3,22.3
		v24.1C111.6,127.9,121.6,137.9,133.9,137.9z M126.6,91.5c0-4,3.3-7.3,7.3-7.3h108.7c4,0,7.3,3.3,7.3,7.3v24.1c0,4-3.3,7.3-7.3,7.3
		H133.9c-4,0-7.3-3.3-7.3-7.3V91.5z"/>
	<path class="st1" d="M112.7,242.6c12.5,0,22-2.2,28.3-6.6c6.3-4.4,9.5-10.9,9.5-19.6c0-4.3-1-8.2-2.9-11.6
		c-1.9-3.4-5.5-6.2-10.8-8.1c6.4-3.8,9.6-9.1,9.6-15.7c0-4.4-0.9-8.1-2.7-11.1c-1.8-3-4.3-5.4-7.5-7.2c-3.2-1.8-7-3.1-11.4-3.9
		c-4.4-0.8-9.3-1.1-14.5-1.1c-3.9,0-8.1,0.2-12.7,0.5c-4.5,0.4-8.7,0.9-12.6,1.6v80.4c4.9,1,9.5,1.7,14.1,2
		C103.6,242.4,108.1,242.6,112.7,242.6z M131.6,216c0,4.3-1.7,7.3-5.1,8.9c-3.4,1.6-7.9,2.4-13.5,2.4c-1.9,0-3.7,0-5.3-0.1
		c-1.6-0.1-3.1-0.2-4.4-0.4v-21.4h11.7c5.3,0,9.5,0.8,12.3,2.4C130.1,209.5,131.6,212.2,131.6,216z M103.2,173.1
		c1.4-0.2,3.1-0.3,4.9-0.3c1.8,0,3.5-0.1,5.1-0.1c5,0,8.7,0.7,11.3,2s3.8,3.7,3.8,7.1c0,3.3-1.2,5.6-3.7,7.1
		c-2.5,1.5-6.6,2.2-12.3,2.2h-9.1h0V173.1z"/>
	<path class="st1" d="M251.8,177.1c-0.7-6.8-1.4-13-2.2-18.5h-17c-1.4,2.6-3.1,5.9-5,9.8s-3.8,8.1-5.9,12.6c-2,4.5-4.1,9.1-6.1,13.8
		c-2,4.7-3.9,9.1-5.6,13.3c-1.8-4.2-3.6-8.6-5.6-13.3c-2-4.7-4-9.3-6.1-13.8c-2-4.5-4-8.7-5.9-12.6c-1.9-3.9-3.5-7.1-5-9.8v0h-17.8
		c-0.8,5.5-1.5,11.7-2.2,18.5c-0.7,6.8-1.3,13.9-1.8,21.3s-1,14.8-1.4,22.2s-0.8,14.4-1.1,20.9h18.2c0.2-8,0.6-16.8,1-26.3
		c0.4-9.5,1-19.1,1.8-28.7c1.4,3.4,3,7.1,4.8,11.1c1.8,4.1,3.5,8.1,5.2,12.2c1.7,4.1,3.4,8,5,11.7c1.6,3.7,3,6.9,4.1,9.5h13
		c1.1-2.6,2.5-5.8,4.1-9.5c1.6-3.7,3.3-7.6,5-11.7c1.7-4.1,3.5-8.1,5.2-12.2s3.4-7.8,4.8-11.1c0.8,9.7,1.4,19.2,1.8,28.7
		c0.4,9.5,0.7,18.3,1,26.3h18.2c-0.3-6.5-0.7-13.5-1.1-20.9c-0.4-7.4-0.9-14.8-1.4-22.2C253,191,252.4,183.9,251.8,177.1z"/>
	<rect x="272.8" y="158.6" class="st1" width="18.7" height="82.9"/>
</g>
</svg>
